<?xml version="1.0" standalone="no"?>
<!DOCTYPE svg PUBLIC "-//W3C//DTD SVG 20010904//EN"
 "http://www.w3.org/TR/2001/REC-SVG-20010904/DTD/svg10.dtd">
<svg version="1.0" xmlns="http://www.w3.org/2000/svg"
 width="980.000000pt" height="942.000000pt" viewBox="0 0 980.000000 942.000000"
 preserveAspectRatio="xMidYMid meet">

<g transform="translate(0.000000,942.000000) scale(0.100000,-0.100000)"
fill="#000000" stroke="none">
<path d="M488 9320 c-16 -10 -17 -22 -12 -98 l7 -88 -28 -18 c-25 -17 -42 -18
-136 -13 -123 7 -125 7 -161 -71 -25 -53 -26 -96 -8 -277 14 -137 31 -1506 24
-1825 -4 -129 0 -485 7 -790 7 -305 14 -1097 15 -1760 2 -663 5 -1416 6 -1675
1 -258 1 -675 -1 -925 -3 -327 0 -486 9 -565 17 -140 38 -167 75 -95 12 23 12
39 3 91 -8 48 -8 183 0 529 7 256 13 677 14 935 5 772 -21 4508 -33 4949 -9
305 -9 478 0 685 11 270 8 348 -18 511 -6 36 -8 92 -5 125 l6 60 102 -3 c55
-2 102 -5 104 -7 1 -1 -4 -27 -12 -57 -19 -73 -25 -161 -31 -423 -8 -376 -9
-2167 -1 -2860 3 -363 9 -896 11 -1185 3 -289 10 -646 16 -795 6 -148 12 -457
14 -685 2 -296 8 -449 19 -535 12 -96 16 -293 20 -987 4 -603 2 -869 -5 -874
-6 -3 -56 -6 -112 -5 -56 1 -111 1 -122 1 -11 0 -48 -2 -83 -6 -77 -8 -76 -5
-70 -190 3 -122 6 -138 23 -150 40 -27 45 -36 45 -78 0 -24 6 -48 13 -53 6 -6
113 -13 237 -17 124 -4 270 -12 325 -17 175 -17 474 -3 501 24 4 3 9 44 13 89
l6 83 140 6 c77 3 284 1 460 -3 176 -5 554 -9 840 -8 286 0 621 -5 745 -12
124 -7 279 -11 345 -11 573 6 1110 3 1415 -7 201 -6 401 -12 445 -13 97 -1
733 19 1050 33 183 8 1349 6 1490 -3 22 -2 30 -7 31 -22 3 -77 18 -166 30
-176 9 -8 63 -10 181 -6 296 9 676 10 731 2 33 -4 58 -3 64 3 5 5 12 46 15 91
l6 81 97 0 97 0 7 46 c3 26 6 97 6 159 l0 113 -27 11 c-43 17 -239 61 -273 61
l-30 0 1 443 c1 243 4 655 8 916 l6 473 42 37 41 37 2 355 c1 263 -2 366 -11
399 -10 34 -13 182 -14 620 0 316 3 586 7 600 4 14 23 33 43 44 l35 19 0 339
0 340 -30 11 -30 11 0 807 c0 721 2 809 16 838 9 18 22 35 30 38 12 4 14 72
14 398 0 353 -2 394 -17 406 -15 13 -16 67 -9 674 7 655 4 758 -26 838 -12 32
-14 32 -79 11 -54 -18 -52 -18 -393 21 -119 14 -265 16 -1075 12 -515 -2
-1152 -7 -1416 -11 -264 -4 -831 -9 -1260 -12 -429 -2 -1198 -7 -1710 -10
-608 -4 -1020 -2 -1190 5 -143 6 -356 11 -472 12 -117 0 -256 5 -310 10 -54 6
-253 12 -443 13 -190 2 -354 6 -365 10 -11 3 -28 1 -37 -4z m692 -99 c113 -6
259 -16 326 -22 225 -21 2475 -11 2729 12 65 6 237 7 420 3 250 -5 2369 -9
3630 -6 281 1 505 -4 545 -13 l25 -5 -3 -1548 c-1 -851 -1 -1608 0 -1682 8
-363 1 -1128 -12 -1350 -7 -135 -12 -297 -9 -360 14 -392 -2 -1147 -32 -1458
-14 -142 -22 -154 -89 -132 -73 24 -74 22 -81 -140 -3 -80 -11 -188 -17 -240
-16 -129 -21 -445 -11 -615 6 -88 5 -192 -1 -280 -6 -77 -15 -220 -19 -319 -5
-98 -13 -182 -18 -186 -4 -4 -49 -10 -99 -14 l-91 -6 -2 558 c-1 545 8 917 29
1237 6 89 12 548 14 1035 5 1421 24 3086 38 3162 8 51 8 116 -1 270 -14 243
-15 800 -2 860 5 24 12 207 15 408 5 362 6 365 28 383 16 13 19 22 12 33 -9
16 28 15 -1224 29 -455 5 -2189 20 -2320 20 -69 0 -584 -6 -1145 -14 -663 -9
-1202 -11 -1540 -6 -609 9 -722 8 -910 -6 -155 -12 -165 -16 -165 -78 0 -20 6
-286 14 -591 9 -406 12 -1032 9 -2335 -3 -979 -5 -2061 -6 -2405 -1 -344 2
-1060 5 -1592 l7 -968 -89 0 -89 0 -5 52 c-3 29 -8 230 -11 447 -4 265 -9 400
-17 415 -10 20 -10 20 7 6 17 -14 18 -12 10 65 -4 44 -10 499 -12 1010 -4
1161 -19 1720 -54 2130 -6 72 -15 544 -20 1050 -15 1565 -28 2347 -39 2420 -5
39 -13 221 -17 405 -8 426 -25 404 -26 -35 -3 -638 11 -1733 23 -1890 8 -107
13 -466 15 -1090 2 -514 8 -1011 14 -1110 6 -99 16 -247 21 -330 23 -340 27
-479 29 -855 5 -988 9 -1229 21 -1425 14 -229 8 -663 -11 -915 -8 -97 -9 -194
-3 -295 9 -147 10 -150 32 -153 13 -2 32 4 42 13 16 14 63 16 416 17 220 1
541 -1 714 -5 173 -4 342 -8 375 -8 98 0 464 -2 550 -2 44 0 145 0 225 -1 80
0 260 1 400 2 140 1 494 2 785 2 292 0 622 0 735 1 113 1 219 2 235 2 311 -4
721 -1 830 6 149 9 193 8 375 -10 76 -8 160 -9 250 -4 74 5 425 9 780 10 437
1 656 5 680 13 19 6 81 14 137 17 l102 7 6 42 c7 51 -1 807 -11 974 l-7 122
60 0 c42 0 64 -5 73 -15 7 -8 23 -15 36 -15 l24 0 2 258 3 257 110 0 110 0 3
-860 c2 -603 -1 -866 -8 -881 -6 -11 -10 -24 -9 -30 2 -5 0 -23 -3 -40 l-7
-31 -88 -6 c-139 -10 -1952 1 -2218 14 -168 7 -795 9 -2090 4 -1017 -4 -1853
-9 -1858 -12 -10 -6 -2178 -5 -2185 1 -2 3 -6 180 -8 393 -5 702 -19 1478 -27
1493 -16 34 -48 4092 -41 5280 5 812 11 955 50 1198 19 120 23 161 14 190 -17
63 -18 62 83 63 50 1 117 5 147 9 60 9 80 8 380 -9z m7872 -48 l98 -6 2 -326
c3 -331 -6 -756 -19 -956 l-8 -110 -95 4 c-52 2 -96 4 -98 6 -12 11 -21 375
-22 840 0 303 0 554 0 559 0 4 10 5 23 2 12 -4 66 -10 119 -13z m-4757 -397
c1194 -3 2278 -8 2410 -11 351 -8 1183 -16 1380 -13 94 1 206 3 250 3 l80 0 0
-30 c0 -112 -18 -401 -25 -410 -5 -6 -54 -12 -112 -13 -91 -3 -180 -15 -271
-38 l-28 -7 2 107 c1 68 -3 111 -10 120 -10 11 -69 14 -316 15 l-304 2 -3
-128 -3 -128 -146 -1 c-80 0 -153 -3 -161 -6 -13 -5 -16 -79 -23 -530 -4 -287
-10 -626 -14 -753 -3 -126 -5 -232 -4 -234 1 -2 206 1 455 6 249 5 494 6 543
2 78 -7 355 -36 363 -38 1 -1 2 -25 2 -53 l0 -53 -417 -1 c-230 -1 -706 -5
-1058 -9 -634 -7 -1756 5 -2425 25 -1122 35 -2704 52 -2903 32 -62 -7 -145
-14 -184 -16 l-73 -5 0 79 0 79 53 6 c51 6 504 1 887 -10 107 -3 539 -10 960
-16 421 -6 983 -14 1250 -19 267 -5 584 -11 705 -13 280 -5 1797 -9 1799 -5 2
2 1 67 -2 144 l-4 142 -71 0 c-80 1 -143 10 -169 24 -15 7 -18 22 -18 77 0 75
4 81 63 81 85 1 100 29 95 187 l-3 98 -94 9 -93 9 6 76 c3 42 9 92 12 113 5
30 2 38 -14 47 -23 12 -418 31 -771 38 l-234 4 5 -88 c6 -100 -3 -135 -38
-158 -28 -18 -31 -52 -7 -70 13 -10 17 -29 17 -91 l1 -79 -37 -17 c-43 -20
-43 -23 -38 -183 2 -87 10 -105 45 -105 30 0 35 -16 35 -106 0 -58 -3 -76 -15
-80 -9 -4 -53 -3 -98 1 l-83 7 -18 116 c-17 112 -32 207 -56 357 -6 39 -13
102 -16 140 -17 237 -25 339 -33 410 -36 309 -35 305 -53 305 -6 0 -19 -6 -27
-14 -17 -15 -45 -20 -98 -18 -31 2 -32 4 -35 50 -2 36 -6 46 -18 43 -8 -3 -39
-7 -67 -9 -40 -3 -54 0 -59 11 -4 13 -55 15 -347 16 -188 1 -347 -2 -353 -6
-8 -6 -13 -190 -16 -658 -4 -576 -6 -654 -21 -688 -23 -53 -47 -47 -64 18 -9
37 -15 217 -20 697 -5 355 -11 650 -16 654 -4 4 -13 2 -19 -4 -13 -13 -155
-17 -195 -6 -22 6 -23 11 -23 120 0 98 -2 115 -17 123 -10 5 -133 11 -274 13
-209 4 -259 2 -275 -9 -18 -13 -19 -37 -20 -696 0 -671 -7 -838 -34 -898 -10
-23 -21 -28 -64 -33 -51 -7 -370 8 -446 20 -36 6 -40 9 -34 28 4 11 11 37 16
56 5 19 13 51 19 70 9 35 34 150 49 225 4 22 17 85 28 140 20 99 42 223 67
385 8 47 19 111 25 143 5 31 15 83 20 115 33 177 38 252 17 252 -15 0 -54
-119 -97 -295 -17 -71 -56 -231 -86 -355 -30 -124 -59 -241 -64 -260 -5 -19
-12 -51 -15 -70 -3 -19 -8 -50 -12 -67 -17 -104 -23 19 -23 516 l0 549 -72 6
c-141 11 -697 20 -1005 17 l-313 -3 0 235 0 235 68 8 c135 14 332 19 552 13
124 -4 1202 -10 2395 -13z m3613 -1153 l-3 -808 -235 0 -235 0 -6 250 c-3 138
-7 494 -8 791 l-1 542 158 7 c86 4 186 10 222 15 36 4 75 8 88 9 l22 1 -2
-807z m-4080 527 c2 -129 0 -479 -3 -777 l-7 -543 -214 0 c-194 0 -213 2 -217
18 -2 9 -5 353 -6 763 l-2 746 123 7 c68 4 141 11 163 15 22 5 67 8 100 8 l60
-2 3 -235z m-2138 54 c47 -8 115 -14 151 -14 l66 0 -3 -672 -3 -673 -188 0
c-103 0 -241 -4 -305 -9 l-117 -9 -6 24 c-3 13 -4 141 -3 284 l3 260 52 3 c45
3 54 6 58 25 3 12 4 94 3 182 l-3 160 -57 3 -58 3 0 223 c0 122 3 226 7 229
10 11 309 -3 403 -19z m916 0 c4 -15 4 -74 0 -133 -4 -58 -10 -351 -15 -650
-6 -408 -11 -545 -20 -551 -11 -6 -59 -11 -211 -23 l-25 -2 -2 315 c-2 173 1
482 5 685 l7 370 110 6 c61 3 118 6 127 7 11 1 20 -7 24 -24z m-356 -23 c3
-14 5 -250 3 -525 -1 -276 -2 -574 -3 -663 l0 -162 -127 2 -128 3 -8 144 c-7
147 1 1201 10 1210 6 7 137 17 198 16 44 -1 50 -4 55 -25z m6128 -135 c-2 -91
-7 -168 -11 -172 -9 -9 -271 -43 -334 -44 l-43 0 0 38 c0 22 3 94 7 162 l6
122 32 14 c17 7 37 20 45 28 10 13 38 16 157 16 l145 0 -4 -164z m-1043 122
c3 -13 4 -318 3 -678 l-3 -655 -117 -3 -118 -3 0 671 0 670 33 0 c17 0 39 5
47 10 8 5 45 10 82 10 62 0 68 -2 73 -22z m-3265 -142 c0 -63 -4 -117 -8 -120
-5 -3 -12 -236 -15 -518 -4 -282 -10 -526 -15 -543 -8 -29 -11 -30 -69 -31
l-61 -2 -7 302 c-3 165 -5 456 -3 645 l3 345 62 -3 c52 -2 65 1 80 18 9 12 21
21 25 21 5 0 8 -51 8 -114z m964 62 c3 -13 8 -151 11 -308 3 -157 12 -433 19
-615 7 -188 9 -338 4 -347 -13 -26 -74 -24 -88 3 -29 54 -38 399 -25 962 l8
327 33 0 c27 0 35 -5 38 -22z m-154 -164 c0 -102 -4 -183 -10 -195 -10 -18
-24 -19 -264 -19 l-254 0 -4 188 c-2 103 -2 190 0 195 2 4 122 7 268 7 l264 0
0 -176z m360 10 c7 -47 13 -127 15 -177 3 -114 44 -583 65 -757 6 -47 14 -109
17 -138 l6 -53 -79 3 -79 3 -7 50 c-15 98 -27 333 -27 521 -1 105 -5 204 -10
220 -5 16 -12 113 -15 216 l-6 187 28 4 c81 12 78 16 92 -79z m3135 -183 c-4
-25 -9 -49 -11 -52 -5 -9 -183 -23 -289 -24 l-90 0 -3 43 c-2 23 -1 42 2 42
36 0 314 34 324 39 7 4 27 5 43 3 31 -4 31 -5 24 -51z m672 -56 c49 -9 104
-19 123 -23 l35 -8 9 -249 c5 -138 9 -293 10 -345 l1 -95 -46 -5 c-26 -3 -54
-12 -63 -19 -9 -8 -20 -11 -24 -7 -4 4 -9 157 -12 339 l-5 332 -25 3 c-14 2
-29 8 -34 13 -6 5 -25 9 -43 9 -31 0 -33 2 -33 35 0 41 -6 40 107 20z m-2728
-23 c67 -6 128 -15 135 -21 6 -5 42 -12 79 -16 l68 -7 -7 -57 c-3 -31 -9 -60
-12 -65 -3 -5 -72 -6 -156 -2 -83 3 -276 9 -430 12 l-278 7 6 45 c3 25 6 62 6
84 l0 39 233 -4 c127 -2 288 -9 356 -15z m-1451 -94 l-3 -73 -40 -7 c-22 -4
-140 -7 -262 -7 l-223 -1 0 73 c0 41 3 77 7 80 3 4 123 7 265 7 l259 0 -3 -72z
m3496 -135 c14 -417 17 -649 8 -661 -5 -8 -20 -14 -33 -14 -22 0 -44 4 -184
32 -27 6 -54 15 -59 20 -6 6 -29 10 -52 10 l-41 0 -9 173 c-5 94 -9 269 -9
387 l0 215 150 7 c83 4 161 9 175 11 14 2 30 5 36 6 8 1 14 -55 18 -186z
m-7037 115 c-2 -13 -4 -3 -4 22 0 25 2 35 4 23 2 -13 2 -33 0 -45z m7671 -326
l2 -303 -27 3 -28 3 -3 150 c-2 83 0 219 3 303 7 149 8 153 29 150 21 -3 21
-5 24 -306z m-2398 195 l175 -12 9 -62 c5 -34 6 -73 2 -88 l-7 -26 -287 5
c-539 9 -794 19 -797 30 -2 6 -5 48 -7 93 l-3 83 370 -5 c203 -3 449 -11 545
-18z m-1730 -312 l0 -305 -262 2 -263 3 -3 303 -2 302 265 0 265 0 0 -305z
m1448 68 l322 -6 0 -80 0 -80 -217 8 c-120 5 -341 9 -490 10 -150 1 -275 4
-278 6 -8 9 -18 117 -12 133 7 19 137 20 675 9z m64 -231 c18 -8 98 -9 246 -5
255 7 245 11 240 -100 l-3 -62 -175 -7 c-212 -9 -399 -10 -412 -2 -6 4 -138 6
-294 5 l-284 -1 0 64 c0 35 -3 78 -7 96 l-6 33 334 -5 c205 -4 344 -10 361
-16z m2731 -262 c4 -91 5 -271 2 -400 -3 -129 -8 -419 -11 -645 -3 -248 -9
-411 -15 -413 -5 -2 -40 1 -78 8 l-68 11 -7 46 c-8 57 -6 1088 3 1353 l6 195
55 6 c30 3 66 6 80 5 l25 -1 8 -165z m-5788 -118 c882 -26 1843 -35 3175 -27
740 4 1461 8 1602 9 157 0 258 -3 258 -8 0 -6 5 -61 11 -124 7 -68 8 -117 2
-123 -5 -5 -100 -2 -239 8 -382 27 -1340 21 -2249 -17 -791 -32 -1672 -36
-2460 -10 -662 21 -1025 26 -1520 18 -280 -4 -531 -10 -557 -14 l-48 -6 0 139
0 140 198 13 c108 6 199 14 201 16 8 8 1269 -3 1626 -14z m-470 -342 c226 -4
541 -15 700 -24 754 -42 1062 -50 1325 -37 241 12 567 27 894 41 120 5 226 12
235 14 22 7 578 8 961 2 313 -5 460 -11 930 -41 135 -9 292 -18 350 -21 l106
-6 11 -36 c19 -61 50 -59 -357 -32 -532 35 -1389 47 -2060 30 -605 -15 -2175
-15 -2735 0 -275 8 -697 10 -1172 7 l-743 -6 0 54 0 54 113 4 c234 6 1048 5
1442 -3z m260 -249 c322 -24 2438 -32 3685 -15 451 6 1169 -10 1450 -34 83 -7
85 -8 88 -34 3 -22 -2 -29 -22 -34 -15 -3 -42 -3 -61 0 -47 9 -372 17 -800 21
-192 1 -380 5 -417 9 -71 7 -184 -6 -202 -24 -7 -7 -7 -16 2 -30 9 -15 11
-144 7 -562 -3 -299 -8 -603 -11 -675 l-6 -133 -204 0 c-120 0 -204 4 -204 9
0 13 30 135 75 301 59 221 134 540 154 655 22 125 51 254 66 297 18 52 19 84
3 94 -6 4 -51 11 -99 15 -54 4 -96 13 -111 23 -32 23 -44 20 -78 -16 -49 -54
-102 -185 -164 -403 -9 -33 -26 -89 -36 -125 -11 -36 -22 -81 -26 -100 -3 -19
-9 -44 -14 -55 -5 -11 -11 -31 -13 -45 -3 -14 -21 -88 -42 -165 -20 -77 -40
-156 -44 -175 -12 -53 -30 -116 -58 -203 -30 -94 -48 -109 -125 -105 l-53 3 1
670 c0 369 3 681 5 694 4 23 0 25 -41 30 -40 4 -70 4 -207 1 -21 -1 -159 2
-306 6 -176 4 -272 3 -278 -3 -11 -11 -12 -279 -4 -783 3 -168 2 -375 -2 -460
l-8 -155 -107 -3 -107 -3 -7 46 c-8 57 0 138 15 143 38 13 42 31 40 192 -1
130 -4 162 -18 186 l-17 28 -127 -3 -127 -3 0 60 c0 55 19 114 41 127 18 12 9
46 -16 57 -29 13 -41 70 -31 159 l6 59 -66 0 c-37 0 -83 4 -103 9 -20 6 -74
14 -121 20 -174 22 -320 44 -480 73 -212 39 -246 40 -270 8 -28 -37 -40 -90
-40 -174 l0 -76 -109 0 c-90 0 -113 -3 -131 -18 -21 -17 -22 -22 -13 -93 5
-41 7 -105 5 -144 l-3 -70 -71 3 c-39 2 -91 1 -115 -3 l-43 -6 0 -139 c0 -76
4 -141 8 -144 5 -3 9 -24 10 -46 1 -23 6 -49 11 -58 5 -9 12 -46 16 -82 3 -36
9 -73 11 -82 5 -16 -3 -18 -60 -18 -60 0 -66 2 -71 23 -3 12 -4 325 -3 696 l3
674 -195 -6 c-107 -4 -222 -9 -255 -13 -33 -3 -312 -7 -620 -8 l-560 -1 -3 59
c-2 32 -1 65 2 72 4 12 146 14 848 14 464 0 902 -4 973 -9z m4003 -221 c1 -36
6 -74 11 -85 22 -51 31 -246 31 -692 l0 -471 -62 -6 c-35 -4 -90 -8 -123 -9
l-60 -2 -3 635 c-1 349 0 650 3 668 l6 33 97 -3 97 -3 3 -65z m775 42 l39 -17
-6 -335 c-5 -288 -26 -931 -30 -937 -1 -1 -66 -3 -146 -5 l-145 -3 1 560 c0
498 6 710 20 754 6 20 215 7 267 -17z m-2154 7 l31 -11 -2 -662 -3 -661 -85 0
-85 0 -3 640 c-1 352 0 649 3 661 9 39 80 55 144 33z m-216 -18 c4 -4 6 -70 5
-147 l-3 -139 -198 -3 c-125 -1 -205 1 -217 8 -19 10 -20 22 -20 156 l0 145
213 -6 c116 -4 216 -11 220 -14z m2001 -41 c23 -153 16 -1042 -10 -1202 l-7
-38 -83 0 c-46 0 -95 -5 -109 -12 -35 -16 -47 -1 -56 64 -4 29 -12 80 -19 113
-9 44 -11 181 -8 510 4 383 7 461 22 522 l17 71 42 6 c23 4 67 10 97 15 100
15 104 14 114 -49z m762 22 c56 -24 65 -31 70 -60 9 -47 -14 -1175 -25 -1200
0 -2 -40 -1 -88 3 -49 4 -121 7 -160 6 -84 0 -75 -15 -92 144 -28 256 5 965
47 1007 7 7 12 37 12 68 0 31 3 60 8 64 15 17 164 -4 228 -32z m-5443 -626
c-1 -373 -6 -653 -11 -658 -5 -5 -65 -10 -133 -11 l-124 -2 -3 425 c-2 350 0
443 13 525 9 55 19 158 23 230 8 152 0 144 147 142 l90 -2 -2 -649z m3743 639
c31 -8 59 -17 61 -19 5 -5 -26 -117 -37 -131 -11 -15 -36 -101 -55 -190 -29
-135 -55 -244 -69 -288 -36 -113 -61 -210 -101 -397 -9 -41 -25 -110 -36 -153
-10 -43 -19 -86 -19 -96 0 -17 -9 -19 -111 -19 l-111 0 5 32 c2 17 21 78 42
136 20 58 52 182 71 275 19 94 38 188 44 210 5 22 21 90 35 150 14 61 30 121
34 135 5 14 14 45 21 70 18 66 42 142 51 165 4 11 15 38 24 60 31 78 51 86
151 60z m-4864 -27 c10 -4 21 -21 24 -35 10 -36 -4 -770 -16 -908 -29 -323
-33 -338 -89 -343 -40 -4 -89 4 -111 18 -12 7 -17 49 -23 217 -23 625 -18 982
16 1051 11 23 14 23 97 17 47 -4 93 -12 102 -17z m758 -14 l40 -36 0 -572 c0
-314 -3 -588 -7 -608 l-6 -38 -78 0 c-44 0 -81 5 -84 11 -9 13 -22 93 -42 249
-11 90 -17 248 -20 564 -2 241 -2 445 1 452 4 10 26 14 81 14 72 0 76 -1 115
-36z m-1094 11 c30 -20 33 -83 36 -620 1 -322 -2 -460 -10 -485 -10 -31 -18
-88 -21 -157 -1 -19 -7 -23 -35 -23 -23 0 -37 6 -42 18 -9 19 -18 1246 -10
1268 7 18 56 18 82 -1z m804 -7 c0 -13 3 -81 5 -153 2 -71 7 -344 10 -606 5
-393 4 -477 -7 -487 -9 -7 -79 -12 -193 -14 l-179 -3 -3 135 c-1 74 -6 191
-11 260 -9 125 -8 298 6 655 l7 190 55 6 c30 3 71 13 90 22 24 11 64 16 128
17 89 0 92 -1 92 -22z m1511 -198 c30 -5 88 -12 129 -14 88 -6 309 -33 330
-40 8 -3 40 -8 70 -10 30 -3 87 -12 125 -21 126 -30 120 -26 123 -71 5 -63
-18 -69 -220 -54 -90 6 -201 15 -248 20 -47 5 -162 12 -257 16 -94 4 -175 10
-180 13 -4 3 -7 43 -5 89 l4 82 37 0 c20 0 62 -4 92 -10z m1827 -157 l3 -53
-160 -2 c-89 -1 -187 -2 -218 -3 l-58 0 -3 52 -3 52 33 4 c18 2 116 4 218 3
l185 -1 3 -52z m-1728 -93 c194 -10 538 -35 627 -46 47 -6 51 -9 55 -36 3 -16
1 -51 -5 -78 l-9 -47 -67 -6 c-103 -10 -853 -29 -976 -25 l-110 3 3 60 c1 33
4 86 5 117 l2 57 45 4 c90 7 249 6 430 -3z m1726 -372 c1 -200 -2 -348 -7
-348 -5 0 -9 -20 -9 -44 0 -25 -6 -48 -14 -55 -9 -8 -73 -11 -207 -9 l-194 3
-3 390 c-1 214 0 396 3 403 3 10 52 12 217 10 l213 -3 1 -347z m3695 233 c3
-3 3 -133 1 -289 l-4 -283 -29 -15 c-16 -8 -34 -12 -39 -9 -6 4 -34 8 -63 11
-149 11 -149 12 -137 106 4 30 4 75 -1 99 -9 48 -12 382 -4 391 8 8 269 -3
276 -11z m-4420 -241 c4 -41 7 -105 8 -141 l1 -66 -177 -7 c-98 -4 -295 -9
-438 -11 -143 -2 -449 -6 -681 -9 l-421 -6 -7 61 c-9 87 -8 217 2 223 19 12
1060 31 1672 31 l35 0 6 -75z m-80 -311 c7 -11 3 -105 -5 -116 -2 -2 -902 -5
-1303 -4 l-273 1 0 51 c0 28 5 59 10 70 10 18 29 19 786 16 658 -3 777 -6 785
-18z m4295 -116 l73 -6 7 -42 c3 -23 4 -300 2 -616 l-4 -574 -92 -3 -92 -3 0
53 c0 29 5 175 11 323 10 257 2 542 -19 700 -10 71 7 187 26 180 8 -3 48 -8
88 -12z m-669 -100 c-4 -38 -7 -80 -7 -94 l0 -27 -1697 3 c-1032 2 -1769 8
-1878 14 -224 13 -856 14 -1280 1 -176 -5 -552 -12 -835 -15 -283 -4 -648 -13
-810 -21 -162 -9 -350 -18 -417 -21 l-123 -6 0 76 0 75 143 6 c426 18 1844 39
2337 35 228 -2 1187 -3 2130 -3 1510 0 1740 2 1924 17 115 9 211 19 214 22 3
3 73 5 155 5 l150 0 -6 -67z m-1419 -166 l1412 3 0 -44 c0 -23 3 -77 6 -118
l7 -74 -99 -12 c-55 -6 -137 -14 -184 -17 -47 -3 -148 -12 -225 -20 -208 -21
-469 -24 -2295 -30 -1335 -4 -2172 -9 -2570 -16 -14 -1 -36 2 -50 6 -18 4 -32
1 -48 -13 -19 -17 -29 -18 -70 -11 -26 5 -63 16 -83 25 -45 20 -71 16 -84 -14
-9 -20 -16 -22 -99 -22 -49 0 -128 -4 -175 -10 -47 -5 -210 -15 -361 -21 -151
-7 -327 -16 -390 -21 -63 -5 -161 -11 -217 -14 l-103 -5 0 189 0 188 228 13
c125 7 299 17 387 23 214 15 2072 27 2920 19 374 -3 1316 -5 2093 -4z m1412
-406 l0 -49 -67 -10 c-38 -6 -135 -18 -218 -27 -82 -9 -184 -20 -225 -25 -41
-5 -118 -14 -170 -20 -52 -6 -129 -15 -170 -20 -41 -5 -111 -12 -155 -15 -78
-5 -184 -16 -335 -35 -73 -9 -98 -12 -299 -26 l-94 -7 6 -331 c6 -308 17 -458
37 -497 5 -9 3 -26 -4 -40 -10 -22 -19 -24 -87 -27 l-76 -3 -7 32 c-3 17 -6
213 -6 434 l0 402 -59 56 c-33 32 -68 58 -78 58 -30 2 -61 1 -228 -11 -87 -6
-198 -9 -245 -6 -138 9 -149 10 -298 5 -142 -4 -144 -3 -163 20 -19 23 -22 24
-135 18 -98 -5 -119 -9 -138 -26 -20 -18 -35 -20 -181 -21 -108 -1 -173 -6
-200 -16 -31 -10 -87 -13 -240 -10 -110 2 -238 0 -285 -5 -94 -9 -348 -26
-595 -39 -88 -5 -203 -12 -256 -16 l-96 -7 -56 37 c-31 21 -91 74 -133 119
l-77 82 544 9 c383 6 661 6 939 -3 490 -14 1348 -14 1575 1 99 7 521 12 1010
13 571 2 854 6 885 14 25 6 74 11 110 11 36 1 101 7 145 14 132 22 125 23 125
-33z m-5538 -42 c9 -5 30 -9 45 -9 61 0 60 5 73 -350 6 -179 10 -561 8 -850
l-3 -525 -94 -3 c-69 -2 -97 1 -103 10 -9 15 -11 1270 -1 1551 l6 197 26 -7
c14 -3 34 -10 43 -14z m-164 -60 c2 -22 -3 -42 -11 -51 -17 -17 -210 -31 -662
-49 -159 -6 -357 -14 -440 -18 -82 -3 -167 -4 -187 -2 -36 3 -38 5 -38 37 0
27 5 35 23 38 48 10 314 28 692 46 127 6 304 17 395 25 227 18 224 18 228 -26z
m5698 -561 c-6 -548 -19 -969 -30 -987 -8 -12 -113 -16 -140 -5 -15 6 -16 72
-16 703 1 383 4 708 7 724 3 17 13 29 27 31 11 3 41 9 66 14 25 5 56 10 69 11
l23 1 -6 -492z m-2961 315 c5 -71 4 -569 -1 -1108 -4 -539 -7 -1095 -7 -1236
l1 -256 -91 -7 c-49 -3 -92 -5 -94 -3 -11 12 -24 264 -32 642 -11 476 -1 2062
12 2083 6 8 39 12 107 12 l98 0 7 -127z m2690 100 c10 -28 7 -1174 -4 -1187
-5 -6 -11 -57 -13 -113 -2 -56 -7 -106 -12 -110 -4 -4 -76 -8 -159 -8 l-152 0
-6 175 c-9 231 -11 1194 -3 1214 5 12 21 16 63 17 31 0 101 6 156 13 55 8 105
14 111 15 7 0 15 -7 19 -16z m-5427 -385 l-3 -383 -175 -5 c-96 -3 -341 -1
-545 3 -203 5 -425 8 -492 8 l-123 -1 0 349 c0 193 4 352 9 355 9 6 382 21
905 36 175 5 321 12 324 15 3 3 27 5 54 5 l48 0 -2 -382z m3094 359 c10 -16
21 -293 14 -352 -3 -29 -7 -487 -7 -1017 -1 -529 -4 -1042 -8 -1138 l-6 -175
-122 0 c-67 0 -127 5 -132 10 -5 6 -17 134 -26 285 -14 234 -16 433 -13 1330
2 581 7 1061 11 1067 9 14 279 5 289 -10z m638 -14 c4 -4 3 -1163 -2 -1508
l-3 -180 -56 -3 -57 -3 -3 590 c-3 324 -8 593 -12 597 -4 4 -17 -2 -30 -13
-20 -19 -40 -22 -199 -28 -148 -6 -178 -5 -178 6 -5 355 -6 536 -3 544 3 10
532 8 543 -2z m1260 -673 l0 -690 -29 0 c-28 0 -29 2 -35 58 -3 31 -8 142 -12
245 -5 136 -10 190 -19 193 -7 3 -118 10 -246 15 -129 6 -292 13 -364 17
l-130 7 -7 80 c-4 44 -12 110 -18 148 -5 37 -10 127 -11 200 0 72 -4 173 -8
222 -5 50 -7 92 -5 93 1 2 60 8 131 12 70 5 180 16 243 25 63 9 147 21 185 26
39 5 115 15 170 23 55 8 112 14 128 15 l27 1 0 -690z m-2573 670 l24 0 -3
-132 -3 -133 -65 -7 c-36 -3 -103 -7 -150 -9 l-85 -2 -3 130 c-3 128 -2 131
20 139 29 10 174 22 212 17 16 -1 39 -3 53 -3z m-1214 -36 l37 -6 0 -123 0
-122 -232 -7 c-128 -3 -246 -7 -263 -9 -29 -2 -30 -1 -33 48 -1 28 1 88 5 135
7 78 10 85 33 92 27 8 390 2 453 -8z m857 -91 c0 -60 -7 -315 -16 -568 -15
-394 -16 -515 -5 -840 6 -209 12 -486 12 -615 0 -129 4 -287 7 -350 4 -63 6
-127 4 -142 l-3 -27 -231 2 -230 2 7 1315 c4 723 9 1318 12 1323 2 4 103 7
224 7 l219 0 0 -107z m-500 -85 c-1 -369 -20 -2451 -23 -2454 -2 -2 -53 -6
-115 -10 l-111 -7 -11 27 c-5 15 -10 40 -9 54 1 15 -2 101 -6 192 -7 145 1
844 21 1988 l6 354 79 -7 c78 -7 79 -7 89 19 8 21 16 26 45 26 l35 0 0 -182z
m-924 -325 c-3 -245 -11 -525 -16 -622 -6 -108 -6 -320 0 -551 5 -206 9 -458
9 -560 1 -102 5 -202 10 -223 10 -40 -1 -153 -16 -168 -4 -4 -58 -11 -120 -15
l-112 -7 -11 28 c-28 72 -32 295 -26 1310 3 567 6 1078 6 1137 l0 107 108 4
c59 1 122 4 141 5 l34 2 -7 -447z m5890 179 c13 -8 4 -608 -9 -629 -6 -9 -43
-13 -127 -13 -102 0 -119 2 -126 18 -10 21 -18 552 -9 599 l6 33 127 0 c70 0
132 -4 138 -8z m-4139 -28 l53 -7 -4 -1026 c-2 -564 -8 -1070 -11 -1124 -7
-94 -8 -98 -29 -92 -51 14 -88 17 -113 7 -16 -6 -51 -14 -79 -17 l-52 -7 -10
84 c-26 206 -45 1752 -25 2073 l6 107 78 -6 c50 -5 79 -4 84 3 7 13 29 13 102
5z m-1147 -227 c0 -196 -16 -821 -24 -947 -3 -49 -5 -863 -2 -1035 l1 -70
-105 -7 c-114 -8 -332 0 -366 13 -20 7 -21 16 -27 181 -3 95 -11 261 -16 368
-7 123 -8 472 -3 950 l7 755 130 5 c72 3 192 4 268 2 l137 -3 0 -212z m-2883
-49 c-3 -8 -6 -5 -6 6 -1 11 2 17 5 13 3 -3 4 -12 1 -19z m5178 -310 c-4 -183
-10 -421 -13 -528 l-7 -195 -37 -9 c-20 -5 -40 -16 -43 -25 -18 -44 -35 -188
-35 -287 l0 -111 35 -24 c19 -13 35 -27 35 -30 0 -11 -41 -19 -127 -26 -45 -3
-85 -9 -90 -12 -5 -3 -4 -103 1 -223 10 -246 10 -248 -57 -248 l-40 0 6 518
c4 284 10 745 14 1025 l6 507 180 0 179 0 -7 -332z m-3542 172 c3 -3 6 -93 8
-200 l4 -194 -455 3 c-250 2 -556 8 -680 15 l-225 11 0 170 c0 94 3 177 6 185
6 13 87 15 672 15 366 0 668 -2 670 -5z m4512 -112 c110 -6 235 -12 278 -14
l79 -2 -1 -159 c-1 -87 -4 -184 -7 -216 l-7 -58 -341 5 c-207 2 -365 9 -401
16 -36 7 -99 10 -157 7 l-98 -5 0 166 c0 92 -5 186 -10 210 -6 24 -8 47 -5 53
8 12 421 11 670 -3z m1594 -61 c8 -10 9 -85 4 -260 -6 -231 -7 -247 -25 -247
-17 0 -18 12 -18 199 0 204 7 321 20 321 4 0 13 -6 19 -13z m-6604 -296 c275
-5 501 -9 503 -10 1 0 2 -50 2 -110 l0 -109 -222 -6 c-123 -4 -338 -10 -479
-14 -237 -6 -259 -9 -279 -27 -24 -21 -24 -27 -4 -192 l7 -53 -105 0 c-58 0
-139 3 -181 6 l-77 7 0 265 0 264 168 -6 c92 -4 392 -10 667 -15z m4665 -142
c58 -5 330 -13 605 -19 275 -5 589 -12 697 -16 226 -8 208 3 208 -122 0 -70
-1 -73 -27 -84 -19 -8 -185 -14 -523 -19 -272 -3 -686 -10 -919 -14 l-423 -8
12 22 c6 13 9 29 6 37 -9 23 -18 212 -11 224 8 13 232 13 375 -1z m-3872 -281
l-3 -113 -375 -7 c-206 -3 -466 -8 -578 -11 l-203 -4 2 71 c1 39 -1 90 -6 114
l-8 42 194 1 c492 1 911 7 916 13 4 3 19 6 35 6 l29 0 -3 -112z m5055 -54
l307 -7 0 -208 0 -207 -37 -6 c-84 -12 -368 -18 -1163 -22 -459 -3 -848 -6
-864 -7 -26 -2 -31 2 -36 28 -4 17 -17 46 -29 66 -19 33 -22 53 -24 185 l-2
148 40 1 c22 1 117 6 210 11 94 5 211 9 260 8 50 0 215 -1 368 -2 153 -1 284
1 290 5 12 7 317 22 352 17 11 -1 158 -6 328 -10z m-6297 -120 c21 -4 35 -14
43 -30 16 -36 15 -283 -1 -289 -7 -2 -106 -6 -220 -8 l-208 -6 0 168 c0 92 3
171 8 175 7 8 321 -1 378 -10z m867 -21 l367 -6 0 -159 0 -159 -521 3 c-469 2
-521 4 -529 19 -17 32 -24 197 -10 255 l13 54 156 0 c86 0 321 -3 524 -7z
m-283 -388 c344 -4 625 -7 626 -8 1 -1 4 -88 7 -193 l5 -191 -132 -9 c-72 -5
-185 -8 -251 -7 -66 2 -284 5 -485 7 -625 8 -668 10 -692 33 -16 17 -20 33
-20 88 0 40 6 75 15 88 11 18 12 36 6 87 -5 36 -12 72 -14 81 -5 14 11 18 102
26 60 6 131 9 158 7 28 -2 331 -6 675 -9z m5900 -4 c0 -10 -7 -36 -16 -57 -12
-29 -15 -62 -12 -139 5 -127 13 -141 103 -176 l30 -12 -45 -10 c-26 -5 -233
-9 -480 -8 -239 1 -509 1 -600 0 -91 -1 -248 -1 -350 -1 -102 0 -323 1 -492 1
-216 0 -309 4 -313 12 -7 11 -19 196 -18 275 0 22 7 54 14 70 12 25 22 30 69
37 114 17 442 23 1263 25 823 2 847 1 847 -17z m105 -62 c11 -31 11 -160 -1
-216 -5 -28 -30 -30 -44 -4 -13 26 -13 217 1 242 14 27 30 20 44 -22z m-5407
-629 c273 -5 1183 -12 2022 -15 839 -3 1590 -10 1670 -15 212 -14 2149 -13
2400 1 168 10 222 9 300 -2 l95 -14 3 -69 c2 -38 -1 -73 -5 -77 -4 -4 -386 -9
-848 -10 -636 -2 -855 1 -900 10 -46 9 -71 10 -105 1 -70 -18 -1981 -25 -2370
-10 -459 19 -849 24 -874 11 -22 -11 -741 -10 -826 1 -39 5 -1364 7 -2777 5
-412 -1 -423 -1 -450 19 -25 19 -28 28 -31 88 l-3 66 33 1 c482 19 1922 24
2666 9z m6105 -299 l147 -1 0 -45 0 -45 -109 0 c-126 0 -543 -17 -613 -25 -45
-5 -48 -4 -63 25 -9 17 -15 43 -13 58 l3 27 165 5 c91 3 203 5 250 4 47 -1
151 -2 233 -3z m-7853 -33 c0 -64 8 -62 -291 -61 -150 1 -339 7 -420 14 -140
12 -148 14 -158 36 -6 13 -11 28 -11 33 0 6 168 10 440 10 l440 0 0 -32z"/>
<path d="M5527 3111 c-7 -123 0 -1214 9 -1288 4 -35 10 -63 14 -63 21 0 39
480 40 1046 l0 382 -29 4 -29 4 -5 -85z"/>
<path d="M9678 7595 c-8 -718 -25 -2867 -32 -4055 -4 -498 -11 -957 -17 -1020
-11 -123 -12 -1230 -1 -1230 1 0 7 12 13 27 17 44 29 265 40 698 5 226 14 500
19 610 22 469 31 1185 32 2675 1 1302 -2 1684 -16 2140 -25 793 -31 819 -38
155z"/>
</g>
</svg>
